<svg height="571" viewBox="0 0 2103 571" width="2103" xmlns="http://www.w3.org/2000/svg"><g fill="#fff"><path d="m536.5 289.2-134.2 107.1v-107.1h-41.9v214.8h41.9v-60.9l48.3-38.4c7.6 9.5 14.5 18.3 21.1 26.9 36.9 47.3 59.2 75.9 94.1 75.9 6.4 0 12.9-.9 20.6-2.9l2.5-.6-1.1-38.1-3.8.8c-2.7.6-5.3 1.2-8.1 1.2-21.8 0-51.5-28.4-93.4-89.2l112-89.4h-58zm189.4 48.6c-18 0-42.9 4.8-62.7 26.5l-1.3-23.1h-40.1v163.1h41.9v-87.3c9.9-29 33.8-39.3 51.3-39.3 14.7 0 30.6 9 30.6 28.7v97.9h42.5v-102.8c0-37.5-25.6-63.7-62.2-63.7zm179-7.5c-52.2 0-86 34.5-86 87.8 0 51.6 34.9 86.3 86.9 86.3 52.4 0 86.3-34.5 86.3-87.8 0-51.7-35-86.3-87.2-86.3zm.6 133.5c-26.8 0-44.1-18.8-44.1-47.9 0-27.6 16.7-44.7 43.5-44.7 27.2 0 44.7 18.8 44.7 47.8 0 27.6-16.9 44.8-44.1 44.8zm312.3-14.8-2.8 6.1c-16.6-43.6-30-79.3-42-111.8l-.8-2.1h-42.1l-.8 2.1c-13.6 36.8-27.6 74.7-41.8 112l-2.9-6.1-8.8-23.1c-10.3-27.1-21-55.1-31.3-82.8l-.8-2.1h-43.1l66.2 163.1h41l43.3-108c5.4 13.3 10.7 26.7 16.1 40 8.7 21.7 17.7 44.1 26.7 66l.8 2h41l66.2-163.1h-43zm198.2-111.5c-19.5 0-37.8 6.7-51.3 18.7v-66.6h-41.9v214.8h39.4l.3-2.9c.4-3.8.8-7.7 1.3-11.5 12.6 12.4 29.8 19.1 49.1 19.1 39.8 0 80-29.6 80-86.3 0-26.5-8-48.6-23.1-63.9-13.7-13.8-32.8-21.4-53.8-21.4zm-9.7 132.5c-26 0-41.6-17.7-41.6-47.2 0-28.8 14.8-45.3 40.6-45.3 27.2 0 44.7 18.8 44.7 47.8.1 27.6-16.7 44.7-43.7 44.7z"/><g transform="translate(1513 267)"><path d="m8.1 73.9h41.9v163.1h-41.9z"/><path d="m28.2.9c-16.4 0-27.4 11.1-27.4 27.7 0 15.7 11.6 27 27.7 27 15.9 0 27-11.4 27-27.7.1-15.6-11.4-27-27.3-27z"/></g><path d="m1668 464c-18.4 0-23.4-6.4-23.4-29.7v-145.1h-41.9v146.4c0 47.3 18.6 70.3 56.8 70.3 5.9 0 15.5-.7 20.7-1.3l2.9-.3v-41.5l-3.8.6c-1.5.3-8.7.6-11.3.6z"/><g transform="translate(1703 267)"><path d="m27.9.9c-16.4 0-27.4 11.1-27.4 27.7 0 15.7 11.6 27 27.7 27 15.9 0 27-11.4 27-27.7.1-15.6-11.4-27-27.3-27z"/><path d="m7.8 73.9h41.9v163.1h-41.9z"/></g><path d="m1868.6 464c-18.4 0-24.4-6.4-24.4-29.7v-54.2h30.5v-39.2h-29.5l-1-51.7h-39.9v51.7h-21.9v39.2h21.9v55.5c0 47.3 18.6 70.3 56.8 70.3 5.9 0 15.5-.7 20.7-1.3l2.9-.3v-41.5l-3.8.6c-1.5.3-9.7.6-12.3.6zm190.7-123.1-.9 1.7c-8.4 16-16.8 32-25.2 48-11.6 22.1-23.5 44.8-35.4 67.2-17.8-38-35.5-76.8-52.7-114.3l-1.2-2.6h-44.2l76.4 156.7-38.4 72.5h43.7l120.9-229.3h-43zm-1759.3-190.9c0-82.7-67.3-150-150-150s-150 67.3-150 150c0 76.7 57.8 140.1 132.2 148.9v187.2c0 9.8 8 17.8 17.8 17.8s17.8-8 17.8-17.8v-187.2c74.4-8.8 132.2-72.2 132.2-148.9zm-132.2 112.8v-39l48.1-48.1c7-7 7-18.2 0-25.2s-18.2-7-25.2 0l-22.9 22.9v-16l35.2-35.2c7-7 7-18.2 0-25.2-7-6.9-18.2-7-25.2 0l-40.4 40.4c-.1.1-.1.1-.2.2-.8.8-1.5 1.6-2.1 2.5-.3.5-.5 1-.8 1.5-.1.2-.2.3-.3.5l-24.9-24.9c-7-7-18.2-7-25.2 0s-7 18.2 0 25.2l48.1 48.1v72.3c-54.7-8.6-96.6-55.8-96.6-112.8.2-63.2 51.4-114.4 114.6-114.4s114.4 51.2 114.4 114.4c0 57.1-41.9 104.3-96.6 112.8z"/></g></svg>